# xmcd
#
# Track frame offsets: 
#        150
#        6574
#        17593
#        34303
#        54325
#        72609
#        91268
#        107344
#        122078
#        140111
#        143834
#        156747
#        165949
#        181454
#        190712
#        206656
#        219313
#
# Disc length: 3966 seconds
#
# Revision: 0
# Processed by: cddbd v1.5.2PL0 Copyright (c) Steve Scherf et al.
# Submitted via: ExactAudioCopyFreeDBPlugin 1.0
#
DISCID=f50f7c11
DTITLE=Monkey Bunch - Power to the Little People
DYEAR=2010
DGENRE=Kids
TTITLE0=Monkey Bunch Theme
TTITLE1=Your Mother Should Know
TTITLE2=Don't Let Your Cars Idle!
TTITLE3=Studio Brew
TTITLE4=The Shakey Shake
TTITLE5=Alphabet
TTITLE6=Mommy Medley
TTITLE7=Poopie Diaper
TTITLE8=Stroller Patrol
TTITLE9=Please (Commodity Fetishism)
TTITLE10=Boris The Spider
TTITLE11=Baby Are You Sleeping
TTITLE12=Henry and Me (or I)
TTITLE13=The Stream
TTITLE14=Gather 'Round
TTITLE15=Go To Sleep
TTITLE16=Goodnight My Love
EXTD=
EXTT0=
EXTT1=
EXTT2=
EXTT3=
EXTT4=
EXTT5=
EXTT6=
EXTT7=
EXTT8=
EXTT9=
EXTT10=
EXTT11=
EXTT12=
EXTT13=
EXTT14=
EXTT15=
EXTT16=
PLAYORDER=
